/* XPM */
static char *bottom_left_active[] = {
/* columns rows colors chars-per-pixel */
"16 16 5 1 ",
"  c #2D2823",
". c #2D2923",
"X c #2E2923",
"o c #2F2923",
"O c None",
/* pixels */
"XXXXXOOOOOOOOOOO",
"XXXXXOOOOOOOOOOO",
"XXXXXOOOOOOOOOOO",
"XXXXXOOOOOOOOOOO",
"XXXXXOOOOOOOOOOO",
"XXXXXOOOOOOOOOOO",
"XXXXXOOOOOOOOOOO",
"XXXXXOOOOOOOOOOO",
"XXXXXOOOOOOOOOOO",
"XXXXXOOOOOOOOOOO",
"XXXXX.OOOOOOOOOO",
"XXXXXXXXXXXXXXXX",
" XXXXXXXXXXXXXXX",
"OXXXXXXXXXXXXXXX",
"OoXXXXXXXXXXXXXX",
"OOO XXXXXXXXXXXX"
};
