/* XPM */
static char *top_left_inactive[] = {
/* columns rows colors chars-per-pixel */
"8 29 6 1 ",
"  c #DFDEDB",
". c #DFDEDC",
"X c #E0DEDB",
"o c #E0DDDC",
"O c #E0DEDC",
"+ c None",
/* pixels */
"+++OOOOO",
"+X.OOOOO",
"+OOOOOOO",
" OOOOOOO",
"oOOOOOOO",
"OOOOOOOO",
"OOOOOOOO",
"OOOOOOOO",
"OOOOOOOO",
"OOOOOOOO",
"OOOOOOOO",
"OOOOOOOO",
"OOOOOOOO",
"OOOOOOOO",
"OOOOOOOO",
"OOOOOOOO",
"OOOOOOOO",
"OOOOOOOO",
"OOOOOOOO",
"OOOOOOOO",
"OOOOOOOO",
"OOOOOOOO",
"OOOOOOOO",
"OOOOOOOO",
"OOOOOOOO",
"OOOOOOOO",
"OOOOOOOO",
"OOOOOOOO",
"OOOOOOOO"
};
