/* XPM */
static char *top_right_inactive[] = {
/* columns rows colors chars-per-pixel */
"8 29 6 1 ",
"  c #DFDEDC",
". c #E1DDDC",
"X c #E0DEDC",
"o c #E1DEDC",
"O c #E1DFDC",
"+ c None",
/* pixels */
"XXXXO+++",
"XXXXX o+",
"XXXXXXX+",
"XXXXXXX.",
"XXXXXXX ",
"XXXXXXXX",
"XXXXXXXX",
"XXXXXXXX",
"XXXXXXXX",
"XXXXXXXX",
"XXXXXXXX",
"XXXXXXXX",
"XXXXXXXX",
"XXXXXXXX",
"XXXXXXXX",
"XXXXXXXX",
"XXXXXXXX",
"XXXXXXXX",
"XXXXXXXX",
"XXXXXXXX",
"XXXXXXXX",
"XXXXXXXX",
"XXXXXXXX",
"XXXXXXXX",
"XXXXXXXX",
"XXXXXXXX",
"XXXXXXXX",
"XXXXXXXX",
"XXXXXXXX"
};
